<?xml version="1.0" standalone="no"?>
<!DOCTYPE svg>
<svg version="1.0" xmlns="http://www.w3.org/2000/svg"
    width="225.000000pt" height="225.000000pt" viewBox="0 0 225.000000 225.000000"
    preserveAspectRatio="xMidYMid meet">

    <g transform="translate(0.000000,225.000000) scale(0.100000,-0.100000)"
        fill="#fff" stroke="none">
        <path
            d="M1022 2040 c-392 -55 -705 -344 -783 -724 -100 -485 193 -958 670
-1083 132 -35 316 -37 445 -5 147 37 286 109 396 207 l48 42 -133 133 -133
132 -49 -40 c-99 -83 -214 -122 -356 -122 -175 0 -332 79 -438 220 -76 102
-109 200 -109 330 0 47 7 112 15 143 78 299 378 474 680 397 92 -23 148 -54
228 -123 l59 -50 126 126 126 127 -39 41 c-96 99 -266 193 -415 228 -99 24
-250 33 -338 21z m286 -125 c98 -20 191 -59 279 -117 l76 -49 -53 -54 -53 -53
-46 33 c-119 84 -234 118 -390 113 l-110 -3 -15 62 c-9 34 -16 64 -16 67 0 19
240 20 328 1z m-414 -91 c9 -37 16 -67 14 -69 -2 -1 -18 -8 -37 -15 -62 -25
-175 -106 -224 -160 -89 -99 -150 -226 -164 -337 l-6 -53 -73 0 -73 0 6 38
c39 277 216 517 467 633 34 15 64 28 67 29 4 0 14 -30 23 -66z m-459 -743 c37
-1 41 -4 43 -28 4 -60 26 -132 64 -213 34 -70 56 -100 127 -171 59 -58 107
-96 153 -120 38 -19 68 -40 68 -48 0 -28 -33 -131 -42 -131 -15 0 -110 51
-168 90 -76 51 -190 174 -238 256 -23 38 -52 103 -66 144 -25 77 -50 205 -42
218 2 4 17 7 33 6 15 -1 46 -3 68 -3z m1169 -618 c-38 -31 -173 -96 -249 -120
-48 -14 -93 -18 -222 -18 -89 0 -164 3 -168 6 -9 9 30 154 41 152 147 -31 341
5 474 88 l45 29 54 -57 55 -56 -30 -24z" />
        <path
            d="M1063 1479 c-57 -11 -117 -43 -170 -92 -117 -108 -143 -290 -59 -429
142 -237 497 -220 614 30 23 49 27 70 27 152 0 89 -2 99 -34 158 -75 139 -224
210 -378 181z m162 -115 c45 -16 108 -72 132 -117 8 -16 17 -53 20 -83 20
-196 -180 -336 -356 -248 -62 31 -105 85 -127 160 -31 106 21 225 120 276 75
39 128 42 211 12z" />
    </g>
</svg>